<mxfile host="app.diagrams.net" modified="2021-04-13T14:05:27.755Z" agent="5.0 (Macintosh; Intel Mac OS X 11_2_3) AppleWebKit/537.36 (KHTML, like Gecko) Chrome/89.0.4389.114 Safari/537.36" etag="vIy0ro3UnlqICJr9e74B" version="14.6.0" type="github">
  <diagram id="x_EGCtdsNAIoLuTjenAh" name="Page-1">
    <mxGraphModel dx="906" dy="570" grid="0" gridSize="10" guides="1" tooltips="1" connect="1" arrows="1" fold="1" page="1" pageScale="1" pageWidth="827" pageHeight="1169" math="0" shadow="0">
      <root>
        <mxCell id="0" />
        <mxCell id="FpdOjQ_UmzUaRlVC9WjG-2" value="Formes" style="" parent="0" />
        <mxCell id="WmJDCKHygcUtH_FTsqzf-33" value="" style="whiteSpace=wrap;html=1;aspect=fixed;strokeWidth=1;" parent="FpdOjQ_UmzUaRlVC9WjG-2" vertex="1">
          <mxGeometry x="147" y="343.5" width="113" height="113" as="geometry" />
        </mxCell>
        <mxCell id="FpdOjQ_UmzUaRlVC9WjG-3" value="Source data" style="shape=document;whiteSpace=wrap;html=1;boundedLbl=1;sketch=0;fillColor=#E6E6E6;fontStyle=1;strokeWidth=2;" parent="FpdOjQ_UmzUaRlVC9WjG-2" vertex="1">
          <mxGeometry x="20" y="70" width="80" height="60" as="geometry" />
        </mxCell>
        <mxCell id="FpdOjQ_UmzUaRlVC9WjG-4" value="Geo-positions provided ?" style="rhombus;whiteSpace=wrap;html=1;sketch=0;" parent="FpdOjQ_UmzUaRlVC9WjG-2" vertex="1">
          <mxGeometry x="148" y="158" width="110" height="80" as="geometry" />
        </mxCell>
        <mxCell id="FpdOjQ_UmzUaRlVC9WjG-5" value="Aggregation" style="rhombus;whiteSpace=wrap;html=1;sketch=0;" parent="FpdOjQ_UmzUaRlVC9WjG-2" vertex="1">
          <mxGeometry x="150" y="60" width="110" height="80" as="geometry" />
        </mxCell>
        <mxCell id="FpdOjQ_UmzUaRlVC9WjG-6" value="" style="endArrow=classic;html=1;entryX=0;entryY=0.5;entryDx=0;entryDy=0;" parent="FpdOjQ_UmzUaRlVC9WjG-2" source="FpdOjQ_UmzUaRlVC9WjG-3" target="FpdOjQ_UmzUaRlVC9WjG-5" edge="1">
          <mxGeometry width="50" height="50" relative="1" as="geometry">
            <mxPoint x="180" y="260" as="sourcePoint" />
            <mxPoint x="230" y="210" as="targetPoint" />
          </mxGeometry>
        </mxCell>
        <mxCell id="FpdOjQ_UmzUaRlVC9WjG-7" value="Aggregation function" style="shape=parallelogram;perimeter=parallelogramPerimeter;whiteSpace=wrap;html=1;fixedSize=1;sketch=0;" parent="FpdOjQ_UmzUaRlVC9WjG-2" vertex="1">
          <mxGeometry x="300" y="20" width="100" height="40" as="geometry" />
        </mxCell>
        <mxCell id="FpdOjQ_UmzUaRlVC9WjG-8" value="Yes" style="endArrow=classic;html=1;exitX=1;exitY=0.5;exitDx=0;exitDy=0;entryX=0;entryY=1;entryDx=0;entryDy=0;" parent="FpdOjQ_UmzUaRlVC9WjG-2" source="FpdOjQ_UmzUaRlVC9WjG-5" target="FpdOjQ_UmzUaRlVC9WjG-7" edge="1">
          <mxGeometry width="50" height="50" relative="1" as="geometry">
            <mxPoint x="290" y="180" as="sourcePoint" />
            <mxPoint x="340" y="130" as="targetPoint" />
          </mxGeometry>
        </mxCell>
        <mxCell id="FpdOjQ_UmzUaRlVC9WjG-9" value="" style="endArrow=classic;html=1;exitX=1;exitY=0.5;exitDx=0;exitDy=0;entryX=0;entryY=0.5;entryDx=0;entryDy=0;" parent="FpdOjQ_UmzUaRlVC9WjG-2" source="FpdOjQ_UmzUaRlVC9WjG-5" target="FpdOjQ_UmzUaRlVC9WjG-11" edge="1">
          <mxGeometry width="50" height="50" relative="1" as="geometry">
            <mxPoint x="290" y="180" as="sourcePoint" />
            <mxPoint x="340" y="130" as="targetPoint" />
          </mxGeometry>
        </mxCell>
        <mxCell id="FpdOjQ_UmzUaRlVC9WjG-13" value="No" style="edgeLabel;html=1;align=center;verticalAlign=middle;resizable=0;points=[];" parent="FpdOjQ_UmzUaRlVC9WjG-9" vertex="1" connectable="0">
          <mxGeometry x="0.0272" relative="1" as="geometry">
            <mxPoint as="offset" />
          </mxGeometry>
        </mxCell>
        <mxCell id="FpdOjQ_UmzUaRlVC9WjG-10" value="Aggregated &lt;br&gt;Data" style="shape=process;whiteSpace=wrap;html=1;backgroundOutline=1;sketch=0;gradientDirection=east;gradientColor=#E6E6E6;" parent="FpdOjQ_UmzUaRlVC9WjG-2" vertex="1">
          <mxGeometry x="450" y="20" width="80" height="40" as="geometry" />
        </mxCell>
        <mxCell id="FpdOjQ_UmzUaRlVC9WjG-11" value="Data" style="shape=process;whiteSpace=wrap;html=1;backgroundOutline=1;sketch=0;gradientDirection=east;gradientColor=#E6E6E6;" parent="FpdOjQ_UmzUaRlVC9WjG-2" vertex="1">
          <mxGeometry x="450" y="80" width="80" height="40" as="geometry" />
        </mxCell>
        <mxCell id="FpdOjQ_UmzUaRlVC9WjG-12" value="" style="endArrow=classic;html=1;entryX=0;entryY=0.5;entryDx=0;entryDy=0;exitX=1;exitY=0.5;exitDx=0;exitDy=0;" parent="FpdOjQ_UmzUaRlVC9WjG-2" source="FpdOjQ_UmzUaRlVC9WjG-7" target="FpdOjQ_UmzUaRlVC9WjG-10" edge="1">
          <mxGeometry width="50" height="50" relative="1" as="geometry">
            <mxPoint x="290" y="180" as="sourcePoint" />
            <mxPoint x="340" y="130" as="targetPoint" />
          </mxGeometry>
        </mxCell>
        <mxCell id="FpdOjQ_UmzUaRlVC9WjG-17" value="" style="endArrow=none;html=1;exitX=1;exitY=0.5;exitDx=0;exitDy=0;" parent="FpdOjQ_UmzUaRlVC9WjG-2" source="FpdOjQ_UmzUaRlVC9WjG-10" edge="1">
          <mxGeometry width="50" height="50" relative="1" as="geometry">
            <mxPoint x="440" y="150" as="sourcePoint" />
            <mxPoint x="560" y="69" as="targetPoint" />
          </mxGeometry>
        </mxCell>
        <mxCell id="FpdOjQ_UmzUaRlVC9WjG-18" value="" style="endArrow=none;html=1;exitX=1;exitY=0.5;exitDx=0;exitDy=0;" parent="FpdOjQ_UmzUaRlVC9WjG-2" edge="1">
          <mxGeometry width="50" height="50" relative="1" as="geometry">
            <mxPoint x="530" y="100" as="sourcePoint" />
            <mxPoint x="560" y="70" as="targetPoint" />
          </mxGeometry>
        </mxCell>
        <mxCell id="FpdOjQ_UmzUaRlVC9WjG-64" style="edgeStyle=orthogonalEdgeStyle;curved=1;rounded=0;orthogonalLoop=1;jettySize=auto;html=1;exitX=1;exitY=0.5;exitDx=0;exitDy=0;entryX=0;entryY=0.5;entryDx=0;entryDy=0;fontColor=#808080;" parent="FpdOjQ_UmzUaRlVC9WjG-2" source="FpdOjQ_UmzUaRlVC9WjG-19" target="FpdOjQ_UmzUaRlVC9WjG-21" edge="1">
          <mxGeometry relative="1" as="geometry" />
        </mxCell>
        <mxCell id="FpdOjQ_UmzUaRlVC9WjG-19" value="Geo-&lt;br&gt;referencing" style="shape=parallelogram;perimeter=parallelogramPerimeter;whiteSpace=wrap;html=1;fixedSize=1;sketch=0;" parent="FpdOjQ_UmzUaRlVC9WjG-2" vertex="1">
          <mxGeometry x="303" y="225" width="100" height="40" as="geometry" />
        </mxCell>
        <mxCell id="FpdOjQ_UmzUaRlVC9WjG-20" value="Yes" style="endArrow=classic;html=1;exitX=1;exitY=0.5;exitDx=0;exitDy=0;entryX=0;entryY=0.5;entryDx=0;entryDy=0;" parent="FpdOjQ_UmzUaRlVC9WjG-2" source="FpdOjQ_UmzUaRlVC9WjG-4" target="FpdOjQ_UmzUaRlVC9WjG-21" edge="1">
          <mxGeometry width="50" height="50" relative="1" as="geometry">
            <mxPoint x="268" y="88" as="sourcePoint" />
            <mxPoint x="308" y="48" as="targetPoint" />
          </mxGeometry>
        </mxCell>
        <mxCell id="FpdOjQ_UmzUaRlVC9WjG-21" value="Georef.&lt;br&gt;Data" style="shape=process;whiteSpace=wrap;html=1;backgroundOutline=1;sketch=0;gradientDirection=east;gradientColor=#E6E6E6;" parent="FpdOjQ_UmzUaRlVC9WjG-2" vertex="1">
          <mxGeometry x="448" y="178" width="80" height="40" as="geometry" />
        </mxCell>
        <mxCell id="FpdOjQ_UmzUaRlVC9WjG-22" value="" style="endArrow=classic;html=1;entryX=0;entryY=0.5;entryDx=0;entryDy=0;" parent="FpdOjQ_UmzUaRlVC9WjG-2" target="FpdOjQ_UmzUaRlVC9WjG-19" edge="1">
          <mxGeometry width="50" height="50" relative="1" as="geometry">
            <mxPoint x="258" y="198" as="sourcePoint" />
            <mxPoint x="468" y="128" as="targetPoint" />
          </mxGeometry>
        </mxCell>
        <mxCell id="FpdOjQ_UmzUaRlVC9WjG-23" value="No" style="edgeLabel;html=1;align=center;verticalAlign=middle;resizable=0;points=[];" parent="FpdOjQ_UmzUaRlVC9WjG-22" vertex="1" connectable="0">
          <mxGeometry x="0.0272" relative="1" as="geometry">
            <mxPoint as="offset" />
          </mxGeometry>
        </mxCell>
        <mxCell id="FpdOjQ_UmzUaRlVC9WjG-24" value="Geometries" style="shape=process;whiteSpace=wrap;html=1;backgroundOutline=1;sketch=0;gradientColor=#ffffff;fillColor=#E6E6E6;gradientDirection=east;" parent="FpdOjQ_UmzUaRlVC9WjG-2" vertex="1">
          <mxGeometry x="120" y="252" width="80" height="40" as="geometry" />
        </mxCell>
        <mxCell id="FpdOjQ_UmzUaRlVC9WjG-25" value="geocodes / IDs" style="endArrow=classic;html=1;exitX=1;exitY=0.5;exitDx=0;exitDy=0;entryX=0;entryY=0.5;entryDx=0;entryDy=0;" parent="FpdOjQ_UmzUaRlVC9WjG-2" source="FpdOjQ_UmzUaRlVC9WjG-24" target="FpdOjQ_UmzUaRlVC9WjG-19" edge="1">
          <mxGeometry width="50" height="50" relative="1" as="geometry">
            <mxPoint x="268" y="228" as="sourcePoint" />
            <mxPoint x="318" y="178" as="targetPoint" />
          </mxGeometry>
        </mxCell>
        <mxCell id="FpdOjQ_UmzUaRlVC9WjG-26" value="" style="endArrow=classic;html=1;edgeStyle=orthogonalEdgeStyle;curved=1;exitX=1;exitY=0.5;exitDx=0;exitDy=0;" parent="FpdOjQ_UmzUaRlVC9WjG-2" source="FpdOjQ_UmzUaRlVC9WjG-21" edge="1">
          <mxGeometry width="50" height="50" relative="1" as="geometry">
            <mxPoint x="532" y="222" as="sourcePoint" />
            <mxPoint x="145" y="407" as="targetPoint" />
            <Array as="points">
              <mxPoint x="600" y="198" />
              <mxPoint x="600" y="320" />
              <mxPoint x="50" y="320" />
              <mxPoint x="50" y="407" />
            </Array>
          </mxGeometry>
        </mxCell>
        <mxCell id="FpdOjQ_UmzUaRlVC9WjG-28" value="Compute&lt;br&gt;new values" style="rhombus;whiteSpace=wrap;html=1;sketch=0;" parent="FpdOjQ_UmzUaRlVC9WjG-2" vertex="1">
          <mxGeometry x="295" y="360" width="110" height="80" as="geometry" />
        </mxCell>
        <mxCell id="FpdOjQ_UmzUaRlVC9WjG-29" value="Compute&lt;br&gt;new stats" style="rhombus;whiteSpace=wrap;html=1;sketch=0;" parent="FpdOjQ_UmzUaRlVC9WjG-2" vertex="1">
          <mxGeometry x="435" y="360" width="110" height="80" as="geometry" />
        </mxCell>
        <mxCell id="FpdOjQ_UmzUaRlVC9WjG-30" value="" style="endArrow=classic;html=1;exitX=1;exitY=0.5;exitDx=0;exitDy=0;" parent="FpdOjQ_UmzUaRlVC9WjG-2" source="WmJDCKHygcUtH_FTsqzf-33" target="FpdOjQ_UmzUaRlVC9WjG-28" edge="1">
          <mxGeometry width="50" height="50" relative="1" as="geometry">
            <mxPoint x="260" y="402" as="sourcePoint" />
            <mxPoint x="390" y="250" as="targetPoint" />
          </mxGeometry>
        </mxCell>
        <mxCell id="FpdOjQ_UmzUaRlVC9WjG-31" value="" style="endArrow=classic;html=1;entryX=0;entryY=0.5;entryDx=0;entryDy=0;" parent="FpdOjQ_UmzUaRlVC9WjG-2" target="FpdOjQ_UmzUaRlVC9WjG-29" edge="1">
          <mxGeometry width="50" height="50" relative="1" as="geometry">
            <mxPoint x="406" y="400" as="sourcePoint" />
            <mxPoint x="430" y="400" as="targetPoint" />
          </mxGeometry>
        </mxCell>
        <mxCell id="FpdOjQ_UmzUaRlVC9WjG-32" value="" style="endArrow=classic;html=1;entryX=0;entryY=0.5;entryDx=0;entryDy=0;edgeStyle=orthogonalEdgeStyle;curved=1;" parent="FpdOjQ_UmzUaRlVC9WjG-2" target="FpdOjQ_UmzUaRlVC9WjG-33" edge="1">
          <mxGeometry width="50" height="50" relative="1" as="geometry">
            <mxPoint x="490" y="440" as="sourcePoint" />
            <mxPoint x="130" y="589.9999999999999" as="targetPoint" />
            <Array as="points">
              <mxPoint x="490" y="473" />
              <mxPoint x="50" y="473" />
              <mxPoint x="50" y="532" />
            </Array>
          </mxGeometry>
        </mxCell>
        <mxCell id="FpdOjQ_UmzUaRlVC9WjG-33" value="Map type" style="rhombus;whiteSpace=wrap;html=1;sketch=0;" parent="FpdOjQ_UmzUaRlVC9WjG-2" vertex="1">
          <mxGeometry x="146.25" y="492" width="110" height="80" as="geometry" />
        </mxCell>
        <mxCell id="FpdOjQ_UmzUaRlVC9WjG-34" value="Graphic style&lt;br&gt;Flows" style="rhombus;whiteSpace=wrap;html=1;sketch=0;" parent="FpdOjQ_UmzUaRlVC9WjG-2" vertex="1">
          <mxGeometry x="295" y="492" width="110" height="80" as="geometry" />
        </mxCell>
        <mxCell id="FpdOjQ_UmzUaRlVC9WjG-35" value="" style="endArrow=classic;html=1;entryX=0;entryY=0.5;entryDx=0;entryDy=0;exitX=1;exitY=0.5;exitDx=0;exitDy=0;" parent="FpdOjQ_UmzUaRlVC9WjG-2" source="FpdOjQ_UmzUaRlVC9WjG-33" target="FpdOjQ_UmzUaRlVC9WjG-34" edge="1">
          <mxGeometry width="50" height="50" relative="1" as="geometry">
            <mxPoint x="260" y="531.9999999999999" as="sourcePoint" />
            <mxPoint x="290" y="531.9999999999999" as="targetPoint" />
          </mxGeometry>
        </mxCell>
        <mxCell id="FpdOjQ_UmzUaRlVC9WjG-36" value="Display" style="shape=or;whiteSpace=wrap;html=1;sketch=0;fillColor=#E6E6E6;fontStyle=1;strokeWidth=2;" parent="FpdOjQ_UmzUaRlVC9WjG-2" vertex="1">
          <mxGeometry x="460" y="492" width="60" height="80" as="geometry" />
        </mxCell>
        <mxCell id="FpdOjQ_UmzUaRlVC9WjG-37" value="" style="endArrow=classic;html=1;exitX=1;exitY=0.5;exitDx=0;exitDy=0;entryX=0;entryY=0.5;entryDx=0;entryDy=0;entryPerimeter=0;" parent="FpdOjQ_UmzUaRlVC9WjG-2" source="FpdOjQ_UmzUaRlVC9WjG-34" target="FpdOjQ_UmzUaRlVC9WjG-36" edge="1">
          <mxGeometry width="50" height="50" relative="1" as="geometry">
            <mxPoint x="340" y="487" as="sourcePoint" />
            <mxPoint x="390" y="437" as="targetPoint" />
          </mxGeometry>
        </mxCell>
        <mxCell id="FpdOjQ_UmzUaRlVC9WjG-38" value="" style="endArrow=classic;html=1;exitX=1;exitY=0.5;exitDx=0;exitDy=0;entryX=0;entryY=0.5;entryDx=0;entryDy=0;entryPerimeter=0;" parent="FpdOjQ_UmzUaRlVC9WjG-2" source="FpdOjQ_UmzUaRlVC9WjG-39" target="FpdOjQ_UmzUaRlVC9WjG-36" edge="1">
          <mxGeometry width="50" height="50" relative="1" as="geometry">
            <mxPoint x="413" y="596.6599999999999" as="sourcePoint" />
            <mxPoint x="468" y="596.6599999999999" as="targetPoint" />
          </mxGeometry>
        </mxCell>
        <mxCell id="FpdOjQ_UmzUaRlVC9WjG-39" value="Base maps" style="shape=process;whiteSpace=wrap;html=1;backgroundOutline=1;sketch=0;gradientDirection=west;gradientColor=#E6E6E6;" parent="FpdOjQ_UmzUaRlVC9WjG-2" vertex="1">
          <mxGeometry x="310" y="577" width="80" height="40" as="geometry" />
        </mxCell>
        <mxCell id="FpdOjQ_UmzUaRlVC9WjG-40" value="" style="endArrow=classic;html=1;entryX=0;entryY=0.5;entryDx=0;entryDy=0;edgeStyle=orthogonalEdgeStyle;curved=1;" parent="FpdOjQ_UmzUaRlVC9WjG-2" source="FpdOjQ_UmzUaRlVC9WjG-36" target="FpdOjQ_UmzUaRlVC9WjG-41" edge="1">
          <mxGeometry width="50" height="50" relative="1" as="geometry">
            <mxPoint x="490" y="584.9999999999999" as="sourcePoint" />
            <mxPoint x="150" y="689.9999999999999" as="targetPoint" />
            <Array as="points">
              <mxPoint x="490" y="630" />
              <mxPoint x="50" y="630" />
              <mxPoint x="50" y="677" />
            </Array>
          </mxGeometry>
        </mxCell>
        <mxCell id="FpdOjQ_UmzUaRlVC9WjG-41" value="Query / Cluster" style="rhombus;whiteSpace=wrap;html=1;sketch=0;" parent="FpdOjQ_UmzUaRlVC9WjG-2" vertex="1">
          <mxGeometry x="150" y="637" width="110" height="80" as="geometry" />
        </mxCell>
        <mxCell id="FpdOjQ_UmzUaRlVC9WjG-42" value="Filter / Brush" style="rhombus;whiteSpace=wrap;html=1;sketch=0;" parent="FpdOjQ_UmzUaRlVC9WjG-2" vertex="1">
          <mxGeometry x="295" y="637" width="110" height="80" as="geometry" />
        </mxCell>
        <mxCell id="FpdOjQ_UmzUaRlVC9WjG-43" value="" style="endArrow=classic;html=1;" parent="FpdOjQ_UmzUaRlVC9WjG-2" edge="1">
          <mxGeometry width="50" height="50" relative="1" as="geometry">
            <mxPoint x="260" y="676.9999999999999" as="sourcePoint" />
            <mxPoint x="290" y="676.9999999999999" as="targetPoint" />
          </mxGeometry>
        </mxCell>
        <mxCell id="FpdOjQ_UmzUaRlVC9WjG-47" value="Labels&lt;br&gt;Captions&lt;br&gt;Pop-ups" style="rhombus;whiteSpace=wrap;html=1;sketch=0;" parent="FpdOjQ_UmzUaRlVC9WjG-2" vertex="1">
          <mxGeometry x="435" y="637" width="110" height="80" as="geometry" />
        </mxCell>
        <mxCell id="FpdOjQ_UmzUaRlVC9WjG-48" value="" style="endArrow=classic;html=1;exitX=1;exitY=0.5;exitDx=0;exitDy=0;" parent="FpdOjQ_UmzUaRlVC9WjG-2" source="FpdOjQ_UmzUaRlVC9WjG-42" target="FpdOjQ_UmzUaRlVC9WjG-47" edge="1">
          <mxGeometry width="50" height="50" relative="1" as="geometry">
            <mxPoint x="405" y="636.9999999999999" as="sourcePoint" />
            <mxPoint x="460" y="636.9999999999999" as="targetPoint" />
          </mxGeometry>
        </mxCell>
        <mxCell id="FpdOjQ_UmzUaRlVC9WjG-50" value="" style="endArrow=classic;html=1;entryX=0.5;entryY=0;entryDx=0;entryDy=0;edgeStyle=orthogonalEdgeStyle;curved=1;" parent="FpdOjQ_UmzUaRlVC9WjG-2" source="FpdOjQ_UmzUaRlVC9WjG-36" target="FpdOjQ_UmzUaRlVC9WjG-49" edge="1">
          <mxGeometry width="50" height="50" relative="1" as="geometry">
            <mxPoint x="470" y="617" as="sourcePoint" />
            <mxPoint x="520" y="567" as="targetPoint" />
          </mxGeometry>
        </mxCell>
        <mxCell id="FpdOjQ_UmzUaRlVC9WjG-51" value="" style="endArrow=classic;html=1;edgeStyle=orthogonalEdgeStyle;curved=1;exitX=1;exitY=0.5;exitDx=0;exitDy=0;" parent="FpdOjQ_UmzUaRlVC9WjG-2" source="FpdOjQ_UmzUaRlVC9WjG-47" target="FpdOjQ_UmzUaRlVC9WjG-49" edge="1">
          <mxGeometry width="50" height="50" relative="1" as="geometry">
            <mxPoint x="530" y="542.0000000000001" as="sourcePoint" />
            <mxPoint x="635" y="581.9999999999999" as="targetPoint" />
          </mxGeometry>
        </mxCell>
        <mxCell id="FpdOjQ_UmzUaRlVC9WjG-52" value="" style="endArrow=none;dashed=1;html=1;dashPattern=1 3;strokeWidth=2;edgeStyle=orthogonalEdgeStyle;curved=1;fontColor=#808080;strokeColor=#808080;" parent="FpdOjQ_UmzUaRlVC9WjG-2" edge="1">
          <mxGeometry width="50" height="50" relative="1" as="geometry">
            <mxPoint x="628" y="320" as="sourcePoint" />
            <mxPoint x="628" y="20" as="targetPoint" />
            <Array as="points">
              <mxPoint x="648" y="320" />
              <mxPoint x="648" y="20" />
            </Array>
          </mxGeometry>
        </mxCell>
        <mxCell id="FpdOjQ_UmzUaRlVC9WjG-54" value="Data&lt;br&gt;pre-processing" style="text;html=1;strokeColor=none;align=left;verticalAlign=middle;whiteSpace=wrap;rounded=0;sketch=0;fontColor=#808080;fontStyle=2;fontSize=14;" parent="FpdOjQ_UmzUaRlVC9WjG-2" vertex="1">
          <mxGeometry x="660" y="153" width="109" height="20" as="geometry" />
        </mxCell>
        <mxCell id="FpdOjQ_UmzUaRlVC9WjG-55" value="" style="endArrow=none;dashed=1;html=1;dashPattern=1 3;strokeWidth=2;edgeStyle=orthogonalEdgeStyle;curved=1;fontColor=#808080;strokeColor=#808080;" parent="FpdOjQ_UmzUaRlVC9WjG-2" edge="1">
          <mxGeometry width="50" height="50" relative="1" as="geometry">
            <mxPoint x="628" y="460" as="sourcePoint" />
            <mxPoint x="628" y="320" as="targetPoint" />
            <Array as="points">
              <mxPoint x="648" y="460" />
              <mxPoint x="648" y="320" />
            </Array>
          </mxGeometry>
        </mxCell>
        <mxCell id="FpdOjQ_UmzUaRlVC9WjG-56" value="Data&lt;br&gt;processing" style="text;html=1;strokeColor=none;align=left;verticalAlign=middle;whiteSpace=wrap;rounded=0;sketch=0;fontColor=#808080;fontStyle=2;fontSize=14;" parent="FpdOjQ_UmzUaRlVC9WjG-2" vertex="1">
          <mxGeometry x="660" y="380" width="119" height="20" as="geometry" />
        </mxCell>
        <mxCell id="FpdOjQ_UmzUaRlVC9WjG-58" value="Mapping" style="text;html=1;strokeColor=none;align=left;verticalAlign=middle;whiteSpace=wrap;rounded=0;sketch=0;fontColor=#808080;fontStyle=2;fontSize=14;" parent="FpdOjQ_UmzUaRlVC9WjG-2" vertex="1">
          <mxGeometry x="660" y="520" width="100" height="20" as="geometry" />
        </mxCell>
        <mxCell id="FpdOjQ_UmzUaRlVC9WjG-49" value="Export&lt;br&gt;Online hosting" style="shape=document;whiteSpace=wrap;html=1;boundedLbl=1;sketch=0;fillColor=#E6E6E6;fontStyle=1;strokeWidth=2;" parent="FpdOjQ_UmzUaRlVC9WjG-2" vertex="1">
          <mxGeometry x="530" y="572" width="90" height="60" as="geometry" />
        </mxCell>
        <mxCell id="FpdOjQ_UmzUaRlVC9WjG-61" value="" style="endArrow=none;dashed=1;html=1;dashPattern=1 3;strokeWidth=2;edgeStyle=orthogonalEdgeStyle;curved=1;fontColor=#808080;strokeColor=#808080;" parent="FpdOjQ_UmzUaRlVC9WjG-2" edge="1">
          <mxGeometry width="50" height="50" relative="1" as="geometry">
            <mxPoint x="628" y="600" as="sourcePoint" />
            <mxPoint x="628" y="460" as="targetPoint" />
            <Array as="points">
              <mxPoint x="648" y="600" />
              <mxPoint x="648" y="460" />
            </Array>
          </mxGeometry>
        </mxCell>
        <mxCell id="FpdOjQ_UmzUaRlVC9WjG-62" value="Interaction" style="text;html=1;strokeColor=none;align=left;verticalAlign=middle;whiteSpace=wrap;rounded=0;sketch=0;fontColor=#808080;fontStyle=2;fontSize=14;" parent="FpdOjQ_UmzUaRlVC9WjG-2" vertex="1">
          <mxGeometry x="660" y="660" width="100" height="20" as="geometry" />
        </mxCell>
        <mxCell id="FpdOjQ_UmzUaRlVC9WjG-63" value="" style="endArrow=none;dashed=1;html=1;dashPattern=1 3;strokeWidth=2;edgeStyle=orthogonalEdgeStyle;curved=1;fontColor=#808080;strokeColor=#808080;" parent="FpdOjQ_UmzUaRlVC9WjG-2" edge="1">
          <mxGeometry width="50" height="50" relative="1" as="geometry">
            <mxPoint x="628" y="740" as="sourcePoint" />
            <mxPoint x="628" y="600" as="targetPoint" />
            <Array as="points">
              <mxPoint x="648" y="740" />
              <mxPoint x="648" y="600" />
            </Array>
          </mxGeometry>
        </mxCell>
        <mxCell id="WmJDCKHygcUtH_FTsqzf-0" value="" style="endArrow=classic;html=1;entryX=0.5;entryY=0;entryDx=0;entryDy=0;exitX=0.48;exitY=0.997;exitDx=0;exitDy=0;exitPerimeter=0;" parent="FpdOjQ_UmzUaRlVC9WjG-2" source="WmJDCKHygcUtH_FTsqzf-33" target="FpdOjQ_UmzUaRlVC9WjG-33" edge="1">
          <mxGeometry width="50" height="50" relative="1" as="geometry">
            <mxPoint x="201" y="459" as="sourcePoint" />
            <mxPoint x="416" y="354" as="targetPoint" />
          </mxGeometry>
        </mxCell>
        <mxCell id="WmJDCKHygcUtH_FTsqzf-13" value="" style="ellipse;whiteSpace=wrap;html=1;aspect=fixed;fontColor=#ffffff;fillColor=#F5DC93;strokeColor=#473F2D;" parent="FpdOjQ_UmzUaRlVC9WjG-2" vertex="1">
          <mxGeometry x="49.12" y="778" width="14" height="14" as="geometry" />
        </mxCell>
        <mxCell id="WmJDCKHygcUtH_FTsqzf-14" value="" style="ellipse;whiteSpace=wrap;html=1;aspect=fixed;fillColor=#0050ef;strokeColor=#001DBC;fontColor=#ffffff;" parent="FpdOjQ_UmzUaRlVC9WjG-2" vertex="1">
          <mxGeometry x="49.12" y="802" width="14" height="14" as="geometry" />
        </mxCell>
        <mxCell id="WmJDCKHygcUtH_FTsqzf-17" value="" style="ellipse;whiteSpace=wrap;html=1;aspect=fixed;fontColor=#ffffff;fillColor=#009900;strokeColor=#006900;" parent="FpdOjQ_UmzUaRlVC9WjG-2" vertex="1">
          <mxGeometry x="49.12" y="876" width="14" height="14" as="geometry" />
        </mxCell>
        <mxCell id="WmJDCKHygcUtH_FTsqzf-19" value="" style="ellipse;whiteSpace=wrap;html=1;aspect=fixed;fontColor=#ffffff;fillColor=#B3B3B3;strokeColor=#2E2E2E;" parent="FpdOjQ_UmzUaRlVC9WjG-2" vertex="1">
          <mxGeometry x="49.12" y="853" width="14" height="14" as="geometry" />
        </mxCell>
        <mxCell id="WmJDCKHygcUtH_FTsqzf-20" value="" style="ellipse;whiteSpace=wrap;html=1;aspect=fixed;fillColor=#e51400;fontColor=#ffffff;strokeColor=#780000;" parent="FpdOjQ_UmzUaRlVC9WjG-2" vertex="1">
          <mxGeometry x="49.12" y="828" width="14" height="14" as="geometry" />
        </mxCell>
        <mxCell id="WmJDCKHygcUtH_FTsqzf-21" value="Save project" style="shape=document;whiteSpace=wrap;html=1;boundedLbl=1;sketch=0;fontStyle=1;strokeWidth=1;" parent="FpdOjQ_UmzUaRlVC9WjG-2" vertex="1">
          <mxGeometry x="530" y="448" width="90" height="60" as="geometry" />
        </mxCell>
        <mxCell id="WmJDCKHygcUtH_FTsqzf-22" value="" style="endArrow=classic;html=1;edgeStyle=orthogonalEdgeStyle;curved=1;" parent="FpdOjQ_UmzUaRlVC9WjG-2" target="WmJDCKHygcUtH_FTsqzf-21" edge="1">
          <mxGeometry width="50" height="50" relative="1" as="geometry">
            <mxPoint x="516" y="532" as="sourcePoint" />
            <mxPoint x="571" y="572" as="targetPoint" />
          </mxGeometry>
        </mxCell>
        <mxCell id="WmJDCKHygcUtH_FTsqzf-34" value="&lt;span style=&quot;color: rgb(0 , 0 , 0) ; font-family: &amp;#34;helvetica&amp;#34; ; font-size: 12px ; font-style: normal ; font-weight: 700 ; letter-spacing: normal ; text-align: center ; text-indent: 0px ; text-transform: none ; word-spacing: 0px ; background-color: rgb(248 , 249 , 250) ; display: inline ; float: none&quot;&gt;Data&lt;/span&gt;" style="text;whiteSpace=wrap;html=1;" parent="FpdOjQ_UmzUaRlVC9WjG-2" vertex="1">
          <mxGeometry x="148.25" y="338" width="72" height="28" as="geometry" />
        </mxCell>
        <mxCell id="WmJDCKHygcUtH_FTsqzf-35" value="" style="endArrow=none;dashed=1;html=1;dashPattern=1 3;strokeWidth=2;exitX=0;exitY=0.5;exitDx=0;exitDy=0;entryX=1;entryY=0.5;entryDx=0;entryDy=0;" parent="FpdOjQ_UmzUaRlVC9WjG-2" source="WmJDCKHygcUtH_FTsqzf-33" target="WmJDCKHygcUtH_FTsqzf-33" edge="1">
          <mxGeometry width="50" height="50" relative="1" as="geometry">
            <mxPoint x="280" y="447" as="sourcePoint" />
            <mxPoint x="330" y="397" as="targetPoint" />
          </mxGeometry>
        </mxCell>
        <mxCell id="WmJDCKHygcUtH_FTsqzf-36" value="Directed, flows" style="text;html=1;strokeColor=none;fillColor=none;align=center;verticalAlign=middle;whiteSpace=wrap;rounded=0;dashed=1;" parent="FpdOjQ_UmzUaRlVC9WjG-2" vertex="1">
          <mxGeometry x="181.25" y="364" width="40" height="20" as="geometry" />
        </mxCell>
        <mxCell id="WmJDCKHygcUtH_FTsqzf-37" value="Undirected, links" style="text;html=1;strokeColor=none;fillColor=none;align=center;verticalAlign=middle;whiteSpace=wrap;rounded=0;dashed=1;" parent="FpdOjQ_UmzUaRlVC9WjG-2" vertex="1">
          <mxGeometry x="182.25" y="416" width="40" height="20" as="geometry" />
        </mxCell>
        <mxCell id="WmJDCKHygcUtH_FTsqzf-41" value="" style="endArrow=none;html=1;edgeStyle=orthogonalEdgeStyle;curved=1;" parent="FpdOjQ_UmzUaRlVC9WjG-2" edge="1">
          <mxGeometry width="50" height="50" relative="1" as="geometry">
            <mxPoint x="599" y="257" as="sourcePoint" />
            <mxPoint x="562" y="69" as="targetPoint" />
            <Array as="points">
              <mxPoint x="605" y="257" />
              <mxPoint x="605" y="69" />
            </Array>
          </mxGeometry>
        </mxCell>
        <mxCell id="bhWjAG3H4gNq9ImHq5WX-0" value="Arabesque" style="text;html=1;strokeColor=none;fillColor=none;align=left;verticalAlign=middle;whiteSpace=wrap;rounded=0;fontStyle=1" vertex="1" parent="FpdOjQ_UmzUaRlVC9WjG-2">
          <mxGeometry x="70" y="775" width="40" height="20" as="geometry" />
        </mxCell>
        <mxCell id="bhWjAG3H4gNq9ImHq5WX-1" value="Flowmap.Blue" style="text;html=1;strokeColor=none;fillColor=none;align=left;verticalAlign=middle;whiteSpace=wrap;rounded=0;fontStyle=1" vertex="1" parent="FpdOjQ_UmzUaRlVC9WjG-2">
          <mxGeometry x="70" y="799" width="40" height="20" as="geometry" />
        </mxCell>
        <mxCell id="bhWjAG3H4gNq9ImHq5WX-2" value="Flourish" style="text;html=1;strokeColor=none;fillColor=none;align=left;verticalAlign=middle;whiteSpace=wrap;rounded=0;fontStyle=1" vertex="1" parent="FpdOjQ_UmzUaRlVC9WjG-2">
          <mxGeometry x="70" y="825" width="40" height="20" as="geometry" />
        </mxCell>
        <mxCell id="bhWjAG3H4gNq9ImHq5WX-4" value="Kepler" style="text;html=1;strokeColor=none;fillColor=none;align=left;verticalAlign=middle;whiteSpace=wrap;rounded=0;fontStyle=1" vertex="1" parent="FpdOjQ_UmzUaRlVC9WjG-2">
          <mxGeometry x="70" y="850" width="40" height="20" as="geometry" />
        </mxCell>
        <mxCell id="bhWjAG3H4gNq9ImHq5WX-5" value="Magrit" style="text;html=1;strokeColor=none;fillColor=none;align=left;verticalAlign=middle;whiteSpace=wrap;rounded=0;fontStyle=1" vertex="1" parent="FpdOjQ_UmzUaRlVC9WjG-2">
          <mxGeometry x="70" y="873" width="40" height="20" as="geometry" />
        </mxCell>
        <mxCell id="bhWjAG3H4gNq9ImHq5WX-6" value="" style="ellipse;whiteSpace=wrap;html=1;aspect=fixed;fontColor=#ffffff;fillColor=#009900;strokeColor=#006900;" vertex="1" parent="FpdOjQ_UmzUaRlVC9WjG-2">
          <mxGeometry x="120" y="296" width="14" height="14" as="geometry" />
        </mxCell>
        <mxCell id="bhWjAG3H4gNq9ImHq5WX-8" value="" style="ellipse;whiteSpace=wrap;html=1;aspect=fixed;fontColor=#ffffff;fillColor=#009900;strokeColor=#006900;" vertex="1" parent="FpdOjQ_UmzUaRlVC9WjG-2">
          <mxGeometry x="303" y="269" width="14" height="14" as="geometry" />
        </mxCell>
        <mxCell id="bhWjAG3H4gNq9ImHq5WX-10" value="" style="ellipse;whiteSpace=wrap;html=1;aspect=fixed;fontColor=#ffffff;fillColor=#009900;strokeColor=#006900;" vertex="1" parent="FpdOjQ_UmzUaRlVC9WjG-2">
          <mxGeometry x="130" y="442.5" width="14" height="14" as="geometry" />
        </mxCell>
        <mxCell id="bhWjAG3H4gNq9ImHq5WX-11" value="" style="ellipse;whiteSpace=wrap;html=1;aspect=fixed;fontColor=#ffffff;fillColor=#009900;strokeColor=#006900;" vertex="1" parent="FpdOjQ_UmzUaRlVC9WjG-2">
          <mxGeometry x="295" y="416" width="14" height="14" as="geometry" />
        </mxCell>
        <mxCell id="bhWjAG3H4gNq9ImHq5WX-12" value="" style="ellipse;whiteSpace=wrap;html=1;aspect=fixed;fontColor=#ffffff;fillColor=#009900;strokeColor=#006900;" vertex="1" parent="FpdOjQ_UmzUaRlVC9WjG-2">
          <mxGeometry x="144" y="548" width="14" height="14" as="geometry" />
        </mxCell>
        <mxCell id="bhWjAG3H4gNq9ImHq5WX-13" value="" style="ellipse;whiteSpace=wrap;html=1;aspect=fixed;fontColor=#ffffff;fillColor=#009900;strokeColor=#006900;" vertex="1" parent="FpdOjQ_UmzUaRlVC9WjG-2">
          <mxGeometry x="295" y="548" width="14" height="14" as="geometry" />
        </mxCell>
        <mxCell id="bhWjAG3H4gNq9ImHq5WX-14" value="" style="ellipse;whiteSpace=wrap;html=1;aspect=fixed;fontColor=#ffffff;fillColor=#009900;strokeColor=#006900;" vertex="1" parent="FpdOjQ_UmzUaRlVC9WjG-2">
          <mxGeometry x="511" y="572" width="14" height="14" as="geometry" />
        </mxCell>
        <mxCell id="bhWjAG3H4gNq9ImHq5WX-16" value="" style="ellipse;whiteSpace=wrap;html=1;aspect=fixed;fontColor=#ffffff;fillColor=#009900;strokeColor=#006900;" vertex="1" parent="FpdOjQ_UmzUaRlVC9WjG-2">
          <mxGeometry x="511" y="448" width="14" height="14" as="geometry" />
        </mxCell>
        <mxCell id="bhWjAG3H4gNq9ImHq5WX-17" value="" style="ellipse;whiteSpace=wrap;html=1;aspect=fixed;fontColor=#ffffff;fillColor=#009900;strokeColor=#006900;" vertex="1" parent="FpdOjQ_UmzUaRlVC9WjG-2">
          <mxGeometry x="431" y="685" width="14" height="14" as="geometry" />
        </mxCell>
      </root>
    </mxGraphModel>
  </diagram>
</mxfile>
